<?xml version="1.0" encoding="utf-8"?>
<!-- Generator: Adobe Illustrator 17.1.0, SVG Export Plug-In . SVG Version: 6.00 Build 0)  -->
<!DOCTYPE svg PUBLIC "-//W3C//DTD SVG 1.1 Basic//EN" "http://www.w3.org/Graphics/SVG/1.1/DTD/svg11-basic.dtd">
<svg version="1.1" baseProfile="basic" id="Ebene_1"
	 xmlns="http://www.w3.org/2000/svg" xmlns:xlink="http://www.w3.org/1999/xlink" x="0px" y="0px" viewBox="0 0 523 220.2"
	 xml:space="preserve">
<g>
	<defs>
		<rect id="SVGID_1_" y="0" width="523" height="220.2"/>
	</defs>
	<clipPath id="SVGID_2_">
		<use xlink:href="#SVGID_1_"  overflow="visible"/>
	</clipPath>
	<path clip-path="url(#SVGID_2_)" d="M74,65.8v-2.5c0-7.7-4.9-15.7-16.1-17.7c10.2-2,15.2-9.9,15.2-18.1V26
		c0-13.9-9.7-21.9-27.4-21.9H1.7v83.7h44.7C64.1,87.8,74,79.8,74,65.8 M51.7,31.4c0,5.4-3.3,8.8-10.4,8.8H24V20.5h17.8
		c7,0,9.8,3.4,9.8,8.4V31.4z M51.8,63.3c0,5-2.6,8.4-9.8,8.4H24V51.9h17.5c7.2,0,10.3,3.1,10.3,8.8V63.3z M147.5,87.8V23.5h-19.8V61
		c0,7-5.5,14.3-12.7,14.3c-5.9,0-9.4-3.6-9.4-9.8V23.5h-20V68c0,12.6,7.1,20.9,20.8,20.9c10.5,0,17.8-4.8,23.3-15l0.8,13.9H147.5z
		 M213.7,38.5c-4.7-9.9-13.9-16.4-28.3-16.4c-18.2,0-28.6,9.7-28.6,20.4c0,22.3,38.7,16.4,38.7,27.2c0,3.9-3.4,6.3-11.1,6.3
		c-7.5,0-13.8-3.8-18-10.2l-12.7,7c5.1,9,14.9,16.1,30.6,16.1c20.4,0,29.5-10.9,29.5-20.4c0-22.7-38.9-17.2-38.9-27.6
		c0-3.2,3.8-5.9,10.2-5.9c6.8,0,12.6,3.8,15.4,8.7L213.7,38.5z M243,0h-19v14.6h19V0z M243.5,23.5h-20.1v64.3h20.1V23.5z
		 M319.2,87.8V43.2c0-12.3-7.1-21-20.2-21c-10.3,0-18.1,5.1-23.7,16.2l-0.7-14.9h-17.4v64.4h20.1V50.7c0-7,5.8-15,13-15
		c5.8,0,9,3.8,9,9.9v42.2H319.2z M391.4,57.4v-7.5c0-15.8-11.1-27.8-30.3-27.8c-19.2,0-31.5,12.1-31.5,27.9v11.3
		c0,16.2,13,27.6,31.8,27.6c14.9,0,25.1-6.4,29.8-19.2l-14.2-4.4c-2.3,6.2-7.1,10.5-14.1,10.5c-9,0-13.7-5.1-13.7-11.7v-6.7H391.4z
		 M373,50.3h-23.9v-4.2c0-5.9,4.6-10.6,12.1-10.6c7.2,0,11.8,5,11.8,10.6V50.3z M456.2,38.5c-4.7-9.9-13.9-16.4-28.3-16.4
		c-18.2,0-28.6,9.7-28.6,20.4c0,22.3,38.7,16.4,38.7,27.2c0,3.9-3.4,6.3-11.1,6.3c-7.5,0-13.8-3.8-18-10.2l-12.7,7
		c5.1,9,14.9,16.1,30.6,16.1c20.4,0,29.5-10.9,29.5-20.4c0-22.7-38.9-17.2-38.9-27.6c0-3.2,3.8-5.9,10.2-5.9
		c6.8,0,12.6,3.8,15.4,8.7L456.2,38.5z M520.1,38.5c-4.7-9.9-13.9-16.4-28.3-16.4c-18.2,0-28.6,9.7-28.6,20.4
		c0,22.3,38.7,16.4,38.7,27.2c0,3.9-3.4,6.3-11.1,6.3c-7.5,0-13.8-3.8-18-10.2l-12.7,7c5.1,9,14.9,16.1,30.6,16.1
		c20.4,0,29.5-10.9,29.5-20.4c0-22.7-38.9-17.2-38.9-27.6c0-3.2,3.8-5.9,10.2-5.9c6.8,0,12.6,3.8,15.4,8.7L520.1,38.5z"/>
	<path clip-path="url(#SVGID_2_)" d="M0,162.3c1.6,7.1,3.2,19.7,4.2,27.2c9.9,0.5,17.3,2.6,27.7,2.6c19.4,0,31-8.8,31-24.1
		c0-11.3-4.9-17.3-24.9-30.4C23.1,128,21.4,124,21.4,117.8c0-6.9,5.1-10.6,12.5-10.6c9.9,0,15.6,9.9,26,26.1
		c0-3.1-0.2-12.4-0.2-15.5c0-3.2,0.1-6.5,0.2-9.9h-1.3c-7.3-0.5-16.5-3-25.3-3C15.5,105,3,115.2,3,129.3c0,13.2,8.4,19,22.2,27.7
		c12.5,7.8,17.8,12.1,17.8,21.4c0,8.7-7.3,11.5-12.3,11.5C19.6,189.9,15.9,182.2,0,162.3 M93.6,141.4h-0.4l0.4-12.1l-29.7,8.1
		c9.6,6.3,9.9,8.8,9.9,40.5c0,31.9-0.2,32.8-8.9,40.5c1.9,0,3.8,0,5.9-0.1c3.4-0.2,7.7-0.2,11.9-0.2c6.5,0,11.7,0,16.5,0.2
		c2.8,0.1,5.5,0.1,8.4,0.2c-11.5-5.8-13.7-6.7-13.7-27.9c4,1,7.1,1.3,10.8,1.3c16.8,0,31.5-9.6,31.5-33.4c0-17.9-9-29.2-22.6-29.2
		C104.7,129.3,98.7,133.2,93.6,141.4 M104.1,137.9c5.5,0,10.3,6.1,10.3,23.6c0,21.6-5.8,28.9-12.3,28.9c-2.9,0-5-0.8-8.2-2.5
		c-0.4-8.4-0.4-20.1-0.4-26.7v-18.5C96.8,139.7,99.7,137.9,104.1,137.9 M173.8,192.2c24.2,0,33.9-14.1,33.9-32.8
		c0-18.9-9.6-30.1-30.2-30.1c-23.3,0-34.3,15-34.3,34.3C143.2,181.7,152.5,192.2,173.8,192.2 M176.8,190.6
		c-6.7,0-11.8-8.5-11.8-30.5c0-19.1,3.4-29.2,10-29.2c6.3,0,10.9,9.4,10.9,32.6C185.9,183.2,182.6,190.6,176.8,190.6 M246.2,181
		c-5.7,0-8.8-4.4-8.8-12.3v-31c6.5,0,13.3-0.1,18.6-0.5c0.4-2,0.5-4.3,0.5-6.3h-19.1l0.6-16.7l-29.2,23.5h8.8
		c0,13.5-0.2,34.2-0.2,36.1c0,13.7,6.1,18.4,17.1,18.4c8.9,0,19.5-6.5,23.2-14.7c-1.1,0.7-2.2,1.3-3.5,1.8
		C251.8,180.1,249.4,181,246.2,181 M284.2,101.9l-30.3,7.3c9.7,6.9,9.7,7.7,9.7,41.9c0,29.9-0.4,32-8.9,39.6c2.2,0,4.3,0,6.5-0.1
		c3.7-0.2,10-0.2,13.7-0.2c4.3,0,9.5,0,13.3,0.2c2.3,0.1,4.4,0.1,6.6,0.2c-10.7-7.1-11.3-8.8-11.3-34.6
		C283.6,144.4,283.6,120.4,284.2,101.9 M302.9,113c0,6.1,4.9,10.7,11.2,10.7c7,0,13-5.8,13-12.6c0-5.9-4.6-10.7-10.7-10.7
		C309.4,100.4,302.9,106.2,302.9,113 M324,158.5c0-10.2,0-19,0.5-29.2l-29.9,7.3c7.6,6.4,9.7,8.8,9.7,25.3c0,19-0.4,21.2-8.9,28.7
		c1.9,0,3.8,0,5.9-0.1c3.4-0.2,9.3-0.2,13-0.2c4.3,0,9.5,0,13.7,0.2c2.4,0.1,4.8,0.1,7.2,0.2C325.2,184,324,182.4,324,158.5
		 M390.5,151.8c0-5.3-1.8-10.8-5.7-14.7c4.9,1.3,13,5.1,16.2,5.5c0.4-2.2,0.1-10.5,0.1-12.6l-18.5,5c-5.2-3.8-11.2-5.8-18.8-5.8
		c-17,0-27.1,10.1-27.1,23.9c0,14.3,10.9,20.4,25.7,20.4c-11.7,1.9-22.6,4.8-22.6,13.5c0,5.4,3.6,8.5,10.7,9.4
		c-11.8,0.7-17.1,4.3-17.1,10c0,9.6,14.2,13.7,29.2,13.7c16.1,0,36.2-6.5,36.2-21.9c0-8.7-3.4-14.1-15.4-15.6
		c-3.7-0.5-16.7-1.8-20.8-2.2c-4.2-0.4-5.7-1-5.7-2.5c0-1.9,3.6-2.5,10.2-4.6C384.1,171.8,390.5,161,390.5,151.8 M363.6,172.1
		c-4.6,0-6.7-7.7-6.7-21.3c0-13.7,2-20,6.1-20c4.3,0,7.5,6.3,7.5,21.3C370.4,166.9,367.6,172.1,363.6,172.1 M352.4,196.9l1.7,0.2
		l17.8,1.7c5.2,0.5,9.6,3.2,9.6,8.1c0,6.4-6.7,11.8-16.1,11.8c-9.5,0-13.7-5.9-13.7-14.2C351.6,201.6,351.9,198.9,352.4,196.9
		 M429.2,101.9l-30.3,7.3c9.7,6.9,9.7,7.7,9.7,41.9c0,30.1-0.4,31.9-8.9,39.4c1.9,0,4,0,6-0.1c3.5-0.2,7.9-0.2,11.9-0.2
		c6.6,0,9,0,12.7,0.2c2.2,0.1,4.3,0.1,6.5,0.2c-8.2-6.7-8.3-8.7-8.3-29.5v-17.4c3-1.7,7.3-3,9.6-3c6.7,0,10.3,5.4,10.3,26
		c0,15.8-1.1,18-7.1,23.9c1.7-0.1,3.4-0.1,5.1-0.2c1.7-0.1,5-0.2,9.9-0.2c3.4,0,8.1,0,12.5,0.2c2.6,0.1,5.3,0.1,8.1,0.2
		c-8.2-6.4-8.4-11.3-8.4-38.1c0-15.5-4.3-23.2-17.8-23.2c-8.7,0-15.9,4.6-22.1,13.1C428.6,138.2,428.7,104.3,429.2,101.9 M511.6,181
		c-5.7,0-8.8-4.4-8.8-12.3v-31c6.5,0,13.4-0.1,18.6-0.5c0.4-2,0.5-4.3,0.5-6.3h-19.1l0.6-16.7l-29.2,23.5h8.8
		c0,13.5-0.2,34.2-0.2,36.1c0,13.7,6.1,18.4,17.1,18.4c8.9,0,19.5-6.5,23.2-14.7c-1.1,0.7-2.2,1.3-3.5,1.8
		C517.2,180.1,514.8,181,511.6,181"/>
</g>
</svg>
